<svg width="206" height="24" viewBox="0 0 206 24" fill="none" xmlns="http://www.w3.org/2000/svg">
<path d="M8.532 7.56H2.304V11.538H8.154V12.798H2.304V16.74H8.532V18H0.954V6.3H8.532V7.56ZM14.6523 9.594C16.3083 9.594 17.9463 10.566 17.9463 12.906V18H16.6503V13.086C16.6503 11.502 15.5343 10.728 14.3103 10.728C13.0683 10.728 11.9883 11.502 11.9883 13.086V18H10.6923V9.72H11.9883V10.836C12.6183 9.972 13.6263 9.594 14.6523 9.594ZM27.0776 9.72H28.3916V17.388C28.3916 19.764 26.6996 21.42 24.0356 21.42C22.5956 21.42 21.3716 20.862 20.6156 19.962L21.4976 19.224C22.1636 19.962 23.0816 20.286 24.0356 20.286C25.5656 20.286 27.0776 19.368 27.0776 17.388V16.506C26.4476 17.496 25.4036 18.144 23.9996 18.144C21.6416 18.144 19.9676 16.326 19.9676 13.86C19.9676 11.394 21.6416 9.594 23.9996 9.594C25.4036 9.594 26.4476 10.224 27.0776 11.214V9.72ZM24.1616 16.902C25.9256 16.902 27.0776 15.624 27.0776 13.86C27.0776 12.096 25.9256 10.836 24.1616 10.836C22.3976 10.836 21.2276 12.096 21.2276 13.86C21.2276 15.624 22.3976 16.902 24.1616 16.902ZM31.9395 18H30.6435V6.3H31.9395V18ZM35.0038 7.956C34.6078 7.956 34.2118 7.632 34.2118 7.146C34.2118 6.66 34.6078 6.372 35.0038 6.372C35.3998 6.372 35.7958 6.66 35.7958 7.146C35.7958 7.632 35.3998 7.956 35.0038 7.956ZM35.6518 18H34.3558V9.72H35.6698L35.6518 18ZM37.6294 16.29L38.5654 15.732C38.8354 16.47 39.8434 17.136 41.1394 17.136C42.4174 17.136 43.0834 16.668 43.0834 15.732C43.0834 14.688 41.5894 14.454 40.8154 14.238C40.0414 14.022 37.9354 13.626 37.9354 11.898C37.9354 10.35 39.2674 9.558 41.0674 9.558C42.7414 9.558 43.8934 10.296 44.2534 11.196L43.3354 11.736C43.1014 11.142 42.1654 10.602 41.0314 10.602C39.8614 10.602 39.2134 11.07 39.2134 11.844C39.2134 12.816 40.5814 13.032 41.3554 13.248C42.1294 13.464 44.3434 13.914 44.3434 15.696C44.3434 17.352 43.1734 18.216 41.1214 18.216C39.2494 18.216 38.0434 17.388 37.6294 16.29ZM50.1425 9.594C51.7985 9.594 53.4365 10.566 53.4365 12.906V18H52.1405V13.086C52.1405 11.502 51.0245 10.728 49.8005 10.728C48.5585 10.728 47.4785 11.502 47.4785 13.086V18H46.1825V6.3H47.4785V10.836C48.1085 9.972 49.1165 9.594 50.1425 9.594ZM60.5374 18.864C58.4134 15.624 58.4134 8.82 60.5374 5.544H61.9054C59.6554 8.604 59.6734 15.822 61.9234 18.864H60.5374ZM69.789 9.72H71.085V18H69.789V16.902C69.159 17.766 68.151 18.144 67.125 18.144C65.469 18.144 63.831 17.172 63.831 14.832V9.72H65.127V14.67C65.127 16.254 66.243 17.028 67.467 17.028C68.691 17.028 69.789 16.254 69.789 14.67V9.72ZM77.3183 9.594C78.9743 9.594 80.6123 10.566 80.6123 12.906V18H79.3163V13.086C79.3163 11.502 78.2003 10.728 76.9763 10.728C75.7343 10.728 74.6543 11.502 74.6543 13.086V18H73.3583V9.72H74.6543V10.836C75.2843 9.972 76.2923 9.594 77.3183 9.594ZM83.6776 7.956C83.2816 7.956 82.8856 7.632 82.8856 7.146C82.8856 6.66 83.2816 6.372 83.6776 6.372C84.0736 6.372 84.4696 6.66 84.4696 7.146C84.4696 7.632 84.0736 7.956 83.6776 7.956ZM84.3256 18H83.0296V9.72H84.3436L84.3256 18ZM90.6413 10.746H88.6613V15.84C88.6613 16.722 89.2013 16.938 89.8133 16.938H90.5513V18H89.3453C88.0853 18 87.3473 17.28 87.3473 16.02V10.746H86.1953V9.72H87.3473V7.2H88.6613V9.72H90.6413V10.746ZM95.8427 9.576C98.2187 9.576 99.8027 11.394 99.8027 13.86V14.274H93.0167C93.1787 15.93 94.3127 17.028 95.9507 17.028C97.1747 17.028 98.0207 16.47 98.4887 15.768L99.4067 16.434C98.6867 17.496 97.4627 18.162 95.9507 18.162C93.4307 18.162 91.7567 16.326 91.7567 13.86C91.7567 11.394 93.3587 9.576 95.8427 9.576ZM95.8427 10.656C94.2227 10.656 93.1967 11.754 93.0167 13.374H98.5967C98.4167 11.808 97.3907 10.656 95.8427 10.656ZM108.675 6.3H109.989V18H108.675V16.506C108.045 17.496 107.001 18.144 105.597 18.144C103.239 18.144 101.565 16.326 101.565 13.86C101.565 11.376 103.239 9.594 105.597 9.594C107.001 9.594 108.045 10.224 108.675 11.214V6.3ZM105.759 16.902C107.541 16.902 108.675 15.624 108.675 13.86C108.675 12.096 107.541 10.836 105.759 10.836C103.995 10.836 102.825 12.096 102.825 13.86C102.825 15.624 103.995 16.902 105.759 16.902ZM115.485 15.498L116.601 14.76C117.015 15.858 118.455 16.848 120.399 16.848C122.415 16.848 123.261 16.092 123.261 14.742C123.261 13.212 120.975 12.852 119.913 12.546C118.779 12.24 115.899 11.754 115.899 9.342C115.899 7.146 117.771 6.102 120.273 6.102C122.433 6.102 124.161 7.146 124.593 8.424L123.477 9.09C123.153 8.226 121.821 7.452 120.129 7.452C118.383 7.452 117.429 8.136 117.429 9.288C117.429 10.728 119.517 11.034 120.669 11.34C121.713 11.646 124.755 12.258 124.755 14.688C124.755 16.992 123.081 18.198 120.273 18.198C117.753 18.198 116.043 17.028 115.485 15.498ZM130.561 10.746H128.581V15.84C128.581 16.722 129.121 16.938 129.733 16.938H130.471V18H129.265C128.005 18 127.267 17.28 127.267 16.02V10.746H126.115V9.72H127.267V7.2H128.581V9.72H130.561V10.746ZM138.787 9.72H140.101V18H138.787V16.506C138.157 17.496 137.113 18.144 135.709 18.144C133.351 18.144 131.677 16.326 131.677 13.86C131.677 11.376 133.351 9.594 135.709 9.594C137.113 9.594 138.157 10.224 138.787 11.214V9.72ZM135.871 16.902C137.653 16.902 138.787 15.624 138.787 13.86C138.787 12.096 137.653 10.836 135.871 10.836C134.107 10.836 132.937 12.096 132.937 13.86C132.937 15.624 134.107 16.902 135.871 16.902ZM146.258 10.746H144.278V15.84C144.278 16.722 144.818 16.938 145.43 16.938H146.168V18H144.962C143.702 18 142.964 17.28 142.964 16.02V10.746H141.812V9.72H142.964V7.2H144.278V9.72H146.258V10.746ZM151.46 9.576C153.836 9.576 155.42 11.394 155.42 13.86V14.274H148.634C148.796 15.93 149.93 17.028 151.568 17.028C152.792 17.028 153.638 16.47 154.106 15.768L155.024 16.434C154.304 17.496 153.08 18.162 151.568 18.162C149.048 18.162 147.374 16.326 147.374 13.86C147.374 11.394 148.976 9.576 151.46 9.576ZM151.46 10.656C149.84 10.656 148.814 11.754 148.634 13.374H154.214C154.034 11.808 153.008 10.656 151.46 10.656ZM156.827 16.29L157.763 15.732C158.033 16.47 159.041 17.136 160.337 17.136C161.615 17.136 162.281 16.668 162.281 15.732C162.281 14.688 160.787 14.454 160.013 14.238C159.239 14.022 157.133 13.626 157.133 11.898C157.133 10.35 158.465 9.558 160.265 9.558C161.939 9.558 163.091 10.296 163.451 11.196L162.533 11.736C162.299 11.142 161.363 10.602 160.229 10.602C159.059 10.602 158.411 11.07 158.411 11.844C158.411 12.816 159.779 13.032 160.553 13.248C161.327 13.464 163.541 13.914 163.541 15.696C163.541 17.352 162.371 18.216 160.319 18.216C158.447 18.216 157.241 17.388 156.827 16.29ZM166.586 18.864H165.2C167.45 15.822 167.468 8.604 165.218 5.544H166.586C168.71 8.82 168.71 15.624 166.586 18.864Z" fill="#333333"/>
<path d="M189 10L194 15L199 10H189Z" fill="#333333"/>
</svg>
