<svg width="13" height="14" viewBox="0 0 13 14" fill="none" xmlns="http://www.w3.org/2000/svg">
<path d="M2.83892 4.24428V13.2722H0.427576V4.24428H2.83892ZM0.277389 1.89134C0.277389 1.5409 0.399764 1.25165 0.644514 1.02359C0.889264 0.795528 1.21745 0.681497 1.62908 0.681497C2.03514 0.681497 2.36055 0.795528 2.6053 1.02359C2.85561 1.25165 2.98076 1.5409 2.98076 1.89134C2.98076 2.24178 2.85561 2.53103 2.6053 2.75909C2.36055 2.98715 2.03514 3.10118 1.62908 3.10118C1.21745 3.10118 0.889264 2.98715 0.644514 2.75909C0.399764 2.53103 0.277389 2.24178 0.277389 1.89134ZM7.51943 6.17169V13.2722H5.11643V4.24428H7.36924L7.51943 6.17169ZM7.16899 8.44119H6.51818C6.51818 7.77369 6.6044 7.17294 6.77684 6.63894C6.94927 6.09937 7.19124 5.64047 7.50274 5.26222C7.81424 4.8784 8.18415 4.58637 8.61246 4.38612C9.04634 4.18031 9.53027 4.0774 10.0643 4.0774C10.487 4.0774 10.8736 4.13859 11.2241 4.26097C11.5745 4.38334 11.8749 4.57803 12.1252 4.84503C12.3811 5.11203 12.5757 5.46525 12.7092 5.90469C12.8483 6.34412 12.9178 6.8809 12.9178 7.51503V13.2722H10.4981V7.50669C10.4981 7.10619 10.4425 6.79469 10.3313 6.57219C10.22 6.34969 10.0559 6.19394 9.83899 6.10494C9.62762 6.01037 9.36618 5.96309 9.05468 5.96309C8.73206 5.96309 8.45115 6.02706 8.21196 6.155C7.97834 6.28294 7.78365 6.46094 7.6279 6.689C7.47771 6.9115 7.36368 7.17294 7.28581 7.47331C7.20793 7.77369 7.16899 8.09631 7.16899 8.44119Z" fill="#2A2F2F"/>
</svg>
